<?xml version="1.0" encoding="UTF-8"?>
<svg width="28px" height="8px" viewBox="0 0 28 8" version="1.1" xmlns="http://www.w3.org/2000/svg" xmlns:xlink="http://www.w3.org/1999/xlink">
    <!-- Generator: Sketch 54.1 (76490) - https://sketchapp.com -->
    <title>icons</title>
    <desc>Created with Sketch.</desc>
    <g id="Page-1" stroke="none" stroke-width="1" fill="none" fill-rule="evenodd">
        <g id="Artboard" transform="translate(-792.000000, -240.000000)">
            <g id="icons" transform="translate(791.800000, 240.855940)">
                <path d="M6.46687454,1.2151 C6.23147454,1.3195 5.97827454,1.3901 5.71267454,1.4219 C5.98387454,1.2593 6.19207454,1.0021 6.29007454,0.6955 C6.03647454,0.8459 5.75527454,0.9551 5.45627454,1.0141 C5.21667454,0.7589 4.87547454,0.5995 4.49787454,0.5995 C3.77267454,0.5995 3.18487454,1.1873 3.18487454,1.9125 C3.18487454,2.0153 3.19647454,2.1155 3.21887454,2.2117 C2.12747454,2.1569 1.16007454,1.6341 0.512474538,0.8397 C0.399474538,1.0337 0.334674538,1.2593 0.334674538,1.4999 C0.334674538,1.9553 0.566474538,2.3573 0.918674538,2.5927 C0.703474538,2.5859 0.501074538,2.5269 0.324074538,2.4285 C0.323874538,2.4341 0.323874538,2.4395 0.323874538,2.4451 C0.323874538,3.0813 0.776474538,3.6119 1.37727454,3.7325 C1.26707454,3.7625 1.15107454,3.7785 1.03127454,3.7785 C0.946674538,3.7785 0.864474538,3.7703 0.784274538,3.7551 C0.951274538,4.2767 1.43627454,4.6563 2.01087454,4.6669 C1.56147454,5.0191 0.995274538,5.2289 0.380074538,5.2289 C0.274074538,5.2289 0.169674538,5.2227 0.0668745383,5.2107 C0.647874538,5.5831 1.33807454,5.8005 2.07967454,5.8005 C4.49487454,5.8005 5.81547454,3.7997 5.81547454,2.0647 C5.81547454,2.0077 5.81427454,1.9511 5.81167454,1.8947 C6.06827454,1.7097 6.29087454,1.4785 6.46687454,1.2151" id="Fill-1" fill="#444444"></path>
                <path d="M15.6372373,5.4534 L14.6880373,5.4534 L14.6880373,3.9682 C14.6880373,3.614 14.6820373,3.1584 14.1948373,3.1584 C13.7010373,3.1584 13.6256373,3.5444 13.6256373,3.9428 L13.6256373,5.4534 L12.6774373,5.4534 L12.6774373,2.3992 L13.5874373,2.3992 L13.5874373,2.8168 L13.6004373,2.8168 C13.7270373,2.5766 14.0366373,2.3234 14.4984373,2.3234 C15.4596373,2.3234 15.6372373,2.9558 15.6372373,3.7784 L15.6372373,5.4534 Z M11.6072373,1.982 C11.3022373,1.982 11.0564373,1.7354 11.0564373,1.4314 C11.0564373,1.1276 11.3022373,0.881 11.6072373,0.881 C11.9108373,0.881 12.1574373,1.1276 12.1574373,1.4314 C12.1574373,1.7354 11.9108373,1.982 11.6072373,1.982 L11.6072373,1.982 Z M12.0820373,5.4534 L11.1318373,5.4534 L11.1318373,2.3992 L12.0820373,2.3992 L12.0820373,5.4534 Z M16.3168373,0 L10.4502373,0 C10.3028373,0 10.1834373,0.1194 10.1834373,0.2666 L10.1834373,6.1332 C10.1834373,6.2806 10.3028373,6.4 10.4502373,6.4 L16.3168373,6.4 C16.4640373,6.4 16.5834373,6.2806 16.5834373,6.1332 L16.5834373,0.2666 C16.5834373,0.1194 16.4640373,0 16.3168373,0 L16.3168373,0 Z" id="Fill-33" fill="#444444"></path>
                <g id="Group-2" transform="translate(20.300000, 0.400000)" stroke="#444444" stroke-width="0.6">
                    <rect id="Rectangle" x="0.3" y="0.3" width="6.31860465" height="5" rx="0.26"></rect>
                    <polyline id="Path-2" stroke-linecap="round" stroke-linejoin="round" points="0.351060211 0.5245625 3.42675516 2.47347879 6.50245011 0.5245625"></polyline>
                </g>
            </g>
        </g>
    </g>
</svg>